<svg width="512" height="512" viewBox="0 0 420 430" xmlns="http://www.w3.org/2000/svg">
  <rect width="420" height="430" rx="90" fill="#111111"/>
  <g transform="translate(14,10)">
    <line x1="172" y1="28" x2="172" y2="66" stroke="#fff" strokeWidth="8" strokeLinecap="round"/>
    <circle cx="172" cy="19" r="12" fill="#fff" stroke="#fff" strokeWidth="5"/>
    <circle cx="172" cy="19" r="5" fill="#00BFFF"/>
    <circle cx="172" cy="122" r="82" fill="#f5f5f5" stroke="#fff" strokeWidth="8"/>
    <circle cx="88" cy="115" r="22" fill="#fff" stroke="#fff" strokeWidth="6"/>
    <circle cx="88" cy="115" r="12" fill="#00BFFF" opacity="0.9"/>
    <circle cx="256" cy="115" r="22" fill="#fff" stroke="#fff" strokeWidth="6"/>
    <circle cx="256" cy="115" r="12" fill="#00BFFF" opacity="0.9"/>
    <circle cx="140" cy="110" r="26" fill="#111"/>
    <circle cx="140" cy="110" r="20" fill="#00BFFF"/>
    <circle cx="140" cy="110" r="9" fill="#00EEFF" opacity="0.85"/>
    <ellipse cx="148" cy="102" rx="6" ry="4" fill="#fff" opacity="0.85" transform="rotate(-20,148,102)"/>
    <circle cx="204" cy="110" r="26" fill="#111"/>
    <circle cx="204" cy="110" r="20" fill="#00BFFF"/>
    <circle cx="204" cy="110" r="9" fill="#00EEFF" opacity="0.85"/>
    <ellipse cx="212" cy="102" rx="6" ry="4" fill="#fff" opacity="0.85" transform="rotate(-20,212,102)"/>
    <path d="M138 155 Q172 178 206 155" stroke="#111" strokeWidth="6" fill="none" strokeLinecap="round"/>
  </g>
</svg>
